<mxfile host="Electron" modified="2023-01-30T05:26:36.331Z" agent="5.0 (X11; Linux x86_64) AppleWebKit/537.36 (KHTML, like Gecko) draw.io/20.7.4 Chrome/106.0.5249.199 Electron/21.3.3 Safari/537.36" etag="qTS9ZpzsVmSKZ_mscNbw" compressed="false" version="20.7.4" type="device">
  <diagram id="n1-XtxnXe3RT6Pm9B4LI" name="第 1 页">
    <mxGraphModel dx="220" dy="135" grid="1" gridSize="10" guides="1" tooltips="1" connect="1" arrows="1" fold="1" page="1" pageScale="1" pageWidth="827" pageHeight="1169" math="0" shadow="0">
      <root>
        <mxCell id="0" />
        <mxCell id="1" parent="0" />
        <mxCell id="zf8pzSHRXDpI5MpJthdh-1" value="" style="ellipse;whiteSpace=wrap;html=1;aspect=fixed;strokeColor=none;fillColor=#FF2222;" vertex="1" parent="1">
          <mxGeometry x="160" y="160" width="80" height="80" as="geometry" />
        </mxCell>
        <mxCell id="zf8pzSHRXDpI5MpJthdh-5" value="" style="group" vertex="1" connectable="0" parent="1">
          <mxGeometry x="190" y="180" width="20" height="40" as="geometry" />
        </mxCell>
        <mxCell id="zf8pzSHRXDpI5MpJthdh-2" value="" style="endArrow=none;html=1;strokeWidth=5;rounded=1;strokeColor=#FFFFFF;" edge="1" parent="zf8pzSHRXDpI5MpJthdh-5">
          <mxGeometry width="50" height="50" relative="1" as="geometry">
            <mxPoint y="10" as="sourcePoint" />
            <mxPoint x="10" y="40" as="targetPoint" />
            <Array as="points">
              <mxPoint x="10" />
            </Array>
          </mxGeometry>
        </mxCell>
        <mxCell id="zf8pzSHRXDpI5MpJthdh-3" value="" style="endArrow=none;html=1;rounded=1;strokeWidth=5;strokeColor=#FFFFFF;" edge="1" parent="zf8pzSHRXDpI5MpJthdh-5">
          <mxGeometry width="50" height="50" relative="1" as="geometry">
            <mxPoint y="40" as="sourcePoint" />
            <mxPoint x="20" y="40" as="targetPoint" />
          </mxGeometry>
        </mxCell>
      </root>
    </mxGraphModel>
  </diagram>
</mxfile>
